<svg xmlns="http://www.w3.org/2000/svg" viewBox="0 0 1694 1920"><path d="M564.175 10.082c4.772 5.18 27.497 29.661 50.5 54.402l41.825 44.984 46.872 16.221c25.78 8.923 46.96 16.355 47.067 16.517.106.162 3.959 13.907 8.562 30.544L767.37 203h28.815c22.378 0 28.818.279 28.829 1.25.073 6.715 7.204 62.267 8.061 62.796.612.379 18.661 6.901 40.109 14.494 31.584 11.181 39.137 14.2 39.734 15.883.405 1.142 2.22 15.577 4.033 32.077 1.813 16.5 3.804 30.507 4.423 31.127.619.62 18.668 5.038 40.109 9.818 21.441 4.781 39.328 9.223 39.749 9.873.42.65 8.197 15.424 17.282 32.83l16.517 31.648 37.198 31.352a41544.244 41544.244 0 0 1 39.621 33.418l2.424 2.066-8.638 22.434c-4.751 12.339-8.638 22.966-8.637 23.617 0 .65 28.142 24.209 62.536 52.353l62.534 51.171-.635 11.147c-.349 6.13-1.154 21.364-1.789 33.854l-1.155 22.707 58.633 25.639 58.632 25.638 4.473 6.154c2.46 3.385 17.976 24.829 34.48 47.654l30.007 41.5 11.783 44c9.529 35.582 13.976 50.138 23.243 76.08l11.459 32.08 35.15 40.126 35.15 40.125 19.876 46.424 19.877 46.423 65.918 65.871 65.918 65.871-3.413-8c-1.877-4.4-15.452-35.866-30.166-69.925l-26.753-61.924-10.741-49.308c-5.908-27.119-11.179-49.877-11.714-50.575-.535-.697-14.797-18.496-31.693-39.553l-30.721-38.285-10.956-46.215a233003.45 233003.45 0 0 0-15.229-64.215l-4.274-18-44.619-32.5-44.619-32.5-20.345-81.412c-11.19-44.777-20.962-82.036-21.715-82.798-.753-.762-24.603-20.461-53-43.777-28.397-23.316-53.056-43.658-54.798-45.203l-3.168-2.81-11.832-74.339c-6.508-40.887-12.058-74.683-12.333-75.102-.275-.419-26.276.808-57.78 2.726s-57.555 3.213-57.891 2.878c-.666-.667-1.046-2.889-10.883-63.663-3.694-22.825-6.993-41.769-7.331-42.097-.338-.329-15.69 1.558-34.115 4.192-18.425 2.635-34.635 4.816-36.022 4.847-2.308.053-5.52-5.27-37.886-62.792l-35.364-62.85-19.614 6.36c-10.788 3.499-20.475 6.469-21.528 6.601-1.5.187-6.483-6.737-23.048-32.024-11.624-17.744-21.788-32.9-22.586-33.68-.799-.779-26.997-16.033-58.219-33.898l-56.767-32.481-29.17-.734-29.17-.734-63.563-31.463C615.103 29.943 580.425 12.863 573 9.293c-7.425-3.571-14.4-6.973-15.5-7.561-1.1-.587 1.904 3.17 6.675 8.35M22.61 115.058c1.138 1.479 68.106 84.649 134.019 166.442l37.069 46 29.401 5.385c16.17 2.962 34.343 6.337 40.383 7.5l10.981 2.115 7.552 25.5c4.153 14.025 10.237 34.61 13.518 45.745l5.967 20.244 3 .029c1.65.017 21.391-1.631 43.869-3.661 34.392-3.105 41.206-3.482 43-2.377 7.346 4.524 76.631 54.362 76.631 55.122 0 .513-7.421 32.278-16.492 70.59-9.07 38.312-16.315 69.835-16.098 70.051.216.216 23.95-11.727 52.742-26.541 28.791-14.813 54.232-27.889 56.535-29.056l4.186-2.122 3.963 7.238c2.18 3.981 15.736 28.838 30.124 55.238 24.842 45.583 26.471 48.284 32.35 53.646 3.404 3.106 24.19 20.802 46.19 39.325 45.257 38.103 40.869 33.581 50.484 52.029 4.014 7.7 11.224 21.425 16.023 30.5 4.799 9.075 15.365 29.1 23.479 44.5 8.115 15.4 15.263 28.514 15.884 29.143.622.629 16.205 5.747 34.63 11.374 18.425 5.627 34.314 10.655 35.309 11.174.995.518 11.795 9.812 24 20.653s41.414 36.706 64.908 57.476c23.495 20.771 42.929 38.107 43.186 38.524.258.416 4.113 24.169 8.568 52.784l8.099 52.026-20.535 32.827c-11.294 18.055-20.535 33.175-20.535 33.602 0 .426 2.362 1.276 5.25 1.887 2.888.612 28.269 6.381 56.403 12.821l51.154 11.709 32.346 30.942a113828.57 113828.57 0 0 1 54.847 52.5c12.375 11.857 25.953 24.865 30.174 28.907l7.674 7.35.545 7.15c.299 3.933.791 17.501 1.092 30.151 1.313 55.151 3.659 128.925 4.123 129.675.278.45 23.543 12.361 51.699 26.468l51.193 25.649 34.072 48.604c18.74 26.732 60.335 87.858 92.435 135.836 32.099 47.977 58.505 87.089 58.679 86.915.174-.174-6.236-27.053-14.245-59.732-8.009-32.678-16.987-69.353-19.951-81.5l-5.39-22.085-35.552-55.171-35.551-55.171 3.181-50.873 3.181-50.873-21.34-23.371c-11.737-12.854-23.128-25.249-25.313-27.544l-3.972-4.174 1.144-22.826c.63-12.555 1.404-25.801 1.721-29.437l.576-6.61-30.5-33.334-30.5-33.334-4.154-15.556c-2.285-8.556-9.187-34.419-15.338-57.475l-11.183-41.918-47.5-30.849c-26.125-16.966-48.108-31.221-48.85-31.677-.848-.52-4.867-18.08-10.789-47.133l-9.438-46.303-6.28-7.601c-28.281-34.225-75.655-90.789-101.006-120.6-28.734-33.787-30.616-36.24-30.626-39.903-.006-2.147 1.138-17.897 2.542-35 7.807-95.1 11.937-148.594 11.472-148.572-.289.014-23.25 19.361-51.025 42.993s-50.725 42.969-51 42.971c-.275.001-16.035-24.166-35.022-53.706l-34.522-53.708-43.777-26.132-43.776-26.133-47.057-60.905c-25.881-33.498-47.145-61.003-47.253-61.123-.199-.221-10.639-2.441-72.03-15.314-26.223-5.498-34.552-7.611-36.64-9.292-1.486-1.197-19.064-16.048-39.062-33.003L455.5 361.846l-67.279-38.255-67.279-38.254-22.299-34.361c-12.264-18.899-22.741-34.509-23.283-34.689-.542-.181-11.532 6.95-24.423 15.847-12.89 8.897-24.189 16.375-25.109 16.617-1.02.269-22.445-13.49-55-35.322C9.599 105.305 20.852 112.774 22.61 115.058M1.241 584.663c1.714 3.075 86.161 141.983 86.667 142.558.526.598 44.729 7.779 47.886 7.779.549 0 11.654 14.987 24.678 33.304l23.679 33.303 23.718 6.296 23.718 6.296 2.359 6.151a6572.644 6572.644 0 0 0 9.23 23.753l6.872 17.603 23.226 21.796c12.774 11.988 37.408 35.616 54.742 52.506l31.516 30.71 13.484 19.314 13.484 19.315 31.974 17.076 31.974 17.077-.273 5c-.15 2.75-.923 15.125-1.718 27.5l-1.444 22.5 36.743 36.825c29.465 29.53 46.666 45.632 86.832 81.284l50.087 44.459 12.91 41.61 12.91 41.61 48.819 42.455c26.85 23.35 49.243 43.422 49.761 44.606.519 1.183 8.855 27.576 18.526 58.651l17.584 56.5-1.124 9.446c-1.355 11.391-5.765 6.391 33.939 38.48l30.5 24.65 47.698 51.212 47.698 51.212 20.588 39.5 20.589 39.5 26.11 31.5c14.36 17.325 35.789 43.2 47.62 57.5 20.227 24.448 26.175 31.36 24.956 29-.455-.88-70.679-122.667-72.942-126.5-.488-.825-5.735-23.775-11.662-51l-10.776-49.5-31.239-38.908c-17.181-21.4-31.616-39.625-32.076-40.5-.46-.876-11.277-29.942-24.038-64.592l-23.202-63-36.865-37-36.865-37-20.332-81.343-20.332-81.343-32.903-29.941-32.902-29.94-49.563-78.146-49.562-78.147-17-10.854a96500.199 96500.199 0 0 0-74.278-47.333c-.153-.097-4.126-13.626-8.83-30.064-4.703-16.439-8.853-30.176-9.222-30.526-.368-.35-12.038.057-25.932.905-13.894.848-25.394 1.36-25.555 1.137-.162-.223-9.969-20.637-21.793-45.366l-21.498-44.96-24.946-7.654a16954.1 16954.1 0 0 1-35.151-10.818l-10.204-3.165-41.296-49.19c-22.712-27.055-41.97-49.969-42.795-50.922-1.415-1.634-3.036-1.449-28.5 3.239-14.85 2.734-27.753 4.849-28.673 4.701-.921-.149-21.379-15.57-45.464-34.27-43.401-33.699-44.126-34.207-81.826-57.342-20.92-12.838-40.9-25.139-44.399-27.336-3.5-2.197-6.153-3.619-5.897-3.159" fill-rule="evenodd"/></svg>