<?xml version="1.0" standalone="no"?>
<!DOCTYPE svg PUBLIC "-//W3C//DTD SVG 20010904//EN"
 "http://www.w3.org/TR/2001/REC-SVG-20010904/DTD/svg10.dtd">
<svg version="1.0" xmlns="http://www.w3.org/2000/svg"
 width="580.000000pt" height="387.000000pt" viewBox="0 0 580.000000 387.000000"
 preserveAspectRatio="xMidYMid meet">

<g transform="translate(0.000000,387.000000) scale(0.100000,-0.100000)"
fill="#000000" stroke="none">
<path d="M1467 3609 c-160 -38 -244 -186 -207 -364 7 -33 30 -99 51 -148 22
-48 39 -94 39 -102 0 -8 6 -15 14 -15 22 0 28 -17 16 -40 -9 -18 -8 -20 14
-20 25 0 66 44 53 56 -3 3 -8 -3 -11 -14 -4 -11 -14 -23 -23 -26 -13 -5 -14
-1 -9 25 3 17 6 37 6 43 0 6 5 4 11 -4 9 -12 10 -12 5 3 -3 10 -6 26 -6 36 0
9 -7 26 -15 37 -15 18 -15 18 -9 -8 7 -31 -2 -64 -19 -71 -8 -3 -12 9 -13 37
-1 24 -13 66 -31 101 -17 33 -33 76 -37 95 -5 33 -5 33 5 8 13 -33 33 -38 24
-5 -4 16 -1 14 12 -9 10 -16 33 -52 52 -79 19 -26 41 -71 50 -99 9 -28 23 -53
31 -55 91 -25 157 -39 206 -44 53 -6 55 -5 24 5 l-35 11 55 12 c59 14 77 12
39 -5 l-24 -11 25 7 c59 16 108 11 134 -13 25 -22 26 -23 36 -4 5 11 7 26 4
34 -3 8 2 17 11 21 17 6 55 -9 55 -22 0 -4 12 -7 28 -6 83 3 87 4 72 14 -11 7
-9 11 13 19 39 15 57 14 63 -4 10 -25 24 -17 24 13 0 24 6 30 50 45 27 10 84
46 126 80 42 34 90 71 107 81 l30 20 -21 17 c-19 14 -20 19 -7 29 8 6 32 14
55 17 22 3 40 9 40 12 0 15 -32 51 -46 51 -23 0 -16 13 23 43 57 43 119 57
183 43 71 -16 87 -39 71 -103 -10 -37 -9 -48 1 -54 23 -15 57 -9 72 12 l14 21
22 -22 c14 -14 31 -20 48 -18 27 3 27 4 24 69 -4 67 10 97 40 87 7 -3 27 1 44
8 38 16 87 6 148 -30 49 -29 66 -48 48 -54 -19 -6 -42 -32 -42 -47 0 -11 32
-21 93 -27 22 -3 22 -3 -9 -32 l-27 -24 24 -13 c13 -7 59 -41 102 -76 43 -35
81 -63 85 -63 4 0 -17 23 -46 50 -29 28 -49 50 -45 50 4 1 -3 10 -16 20 -30
25 -12 26 20 1 56 -43 69 -40 19 5 -30 27 -66 61 -80 77 -14 15 -35 27 -50 27
-22 1 -23 2 -7 11 21 12 22 39 2 65 -26 34 -16 36 24 4 21 -17 47 -33 57 -34
10 -2 23 -11 28 -21 10 -16 35 -42 110 -110 12 -11 47 -48 79 -82 31 -35 57
-60 57 -56 0 4 7 -2 16 -13 8 -10 12 -12 8 -4 -4 8 6 4 22 -10 16 -14 33 -28
37 -31 5 -3 -2 -5 -15 -4 -38 4 -39 5 -32 17 4 6 3 8 -3 5 -5 -3 -30 4 -56 17
-44 23 -112 30 -112 12 0 -5 20 -16 45 -25 40 -15 45 -20 42 -44 -3 -23 0 -27
20 -26 13 0 17 3 10 6 -17 7 -5 23 18 23 11 0 31 -5 45 -12 24 -11 25 -13 8
-19 -19 -8 -19 -8 62 -14 18 -1 39 6 51 17 25 22 58 14 51 -13 -3 -10 1 -24 9
-30 11 -9 19 -8 34 6 12 11 37 17 68 18 28 1 48 6 44 11 -3 5 2 6 12 3 10 -4
35 -10 57 -13 47 -8 51 -24 7 -25 -18 -1 -25 -3 -16 -6 22 -6 182 24 225 42
29 12 34 12 43 -3 7 -13 9 -7 10 26 0 45 17 86 56 139 13 17 35 52 49 79 14
26 25 42 25 35 0 -7 -5 -21 -11 -33 -6 -11 -8 -22 -6 -25 3 -3 12 8 21 24 31
57 16 -8 -19 -84 -21 -47 -35 -91 -35 -116 0 -34 -2 -38 -15 -27 -8 7 -15 29
-15 49 -1 34 -2 35 -15 17 -16 -21 -21 -71 -6 -62 4 3 6 -6 3 -19 -2 -14 1
-32 8 -40 17 -20 1 -19 -22 2 -22 20 -24 11 -2 -11 8 -9 24 -16 34 -16 16 0
18 5 14 30 -5 23 -3 30 10 30 9 0 16 5 16 11 0 6 17 50 39 98 50 113 65 177
59 265 -5 74 -37 154 -75 188 -35 32 -131 69 -195 75 -52 4 -77 1 -132 -17
-60 -21 -74 -22 -112 -12 -51 14 -91 15 -97 5 -9 -17 60 -98 91 -108 18 -5 32
-12 32 -16 0 -4 -15 -17 -34 -28 -39 -24 -126 -30 -126 -8 0 44 -117 147 -168
147 -34 0 -38 -21 -7 -46 52 -41 21 -46 -34 -5 -69 51 -113 61 -161 34 l-35
-19 -56 28 c-153 76 -369 44 -469 -69 -21 -24 -45 -63 -52 -85 l-14 -41 -32
65 c-46 94 -105 134 -242 163 -86 18 -180 6 -264 -33 -55 -26 -67 -28 -76 -16
-7 7 -28 16 -47 20 -40 8 -85 -10 -146 -58 -21 -17 -40 -28 -43 -26 -9 10 8
37 27 43 26 9 25 45 -1 45 -54 0 -156 -82 -175 -139 -5 -17 -14 -21 -47 -21
-38 0 -118 35 -118 51 0 4 -22 18 -50 32 -27 14 -50 23 -50 21 0 -12 25 -54
32 -54 5 0 6 -9 3 -20 -4 -12 -3 -26 2 -33 8 -11 9 -39 4 -87 -3 -28 -18 -41
-60 -51 -80 -18 -150 37 -122 97 15 33 46 29 46 -6 0 -21 5 -26 31 -28 45 -4
78 38 71 91 -11 78 -73 132 -142 122 -117 -17 -182 -134 -141 -251 7 -22 11
-45 8 -53 -3 -9 0 -11 8 -6 9 5 11 4 6 -4 -9 -15 26 -64 67 -93 29 -20 28 -18
-10 25 -54 59 -55 69 -3 24 52 -44 125 -67 214 -67 52 1 80 6 106 21 19 11 26
17 15 13 -40 -15 -119 -12 -159 7 -22 11 -49 19 -60 19 -42 0 -124 47 -150 86
-33 49 -36 123 -6 172 41 67 133 94 179 51 26 -25 22 -35 -9 -19 -56 30 -120
-22 -120 -98 0 -38 5 -49 35 -77 81 -77 221 -39 242 66 3 16 7 29 8 29 1 0 22
-7 45 -15 40 -14 73 -13 36 1 -20 7 -11 25 9 19 51 -16 51 -17 30 -25 -18 -8
-17 -9 8 -9 38 -1 37 -31 -2 -31 -23 0 -33 -7 -49 -37 -16 -31 -24 -37 -45
-35 -18 2 -24 -2 -23 -14 2 -23 -42 -53 -94 -63 -44 -9 -43 -9 27 -10 75 -1
103 5 103 21 0 5 -5 6 -12 2 -7 -4 -8 -3 -4 5 4 6 11 9 16 6 12 -7 33 23 27
40 -4 8 -1 17 5 21 15 10 38 -24 30 -44 -5 -15 -4 -15 13 -2 17 14 18 13 13
-18 -4 -28 -3 -31 9 -19 16 15 22 43 28 112 6 87 8 91 15 40 l7 -50 3 60 c3
58 3 59 10 20 7 -39 7 -38 10 20 3 58 3 59 10 20 l7 -40 3 45 c2 44 3 43 11
-19 10 -78 -10 -198 -41 -241 -24 -34 -70 -68 -108 -81 -25 -8 -25 -9 6 -4 30
4 40 10 76 42 8 7 16 10 20 8 3 -3 4 -2 1 1 -2 4 7 15 20 26 13 10 27 27 30
38 4 11 11 17 17 14 6 -4 8 -2 5 4 -9 13 2 44 13 37 5 -3 7 9 6 27 -2 18 -1
23 1 11 6 -34 21 -28 29 12 7 40 19 52 28 29 8 -20 -2 -59 -27 -109 -28 -57
-53 -86 -98 -115 -21 -15 -37 -28 -35 -31 2 -2 -12 -5 -32 -6 -20 -1 -38 -6
-39 -10 -2 -5 -34 -6 -71 -2 -94 11 -132 11 -132 -1 0 -5 19 -10 43 -11 23 -1
53 -4 67 -8 20 -6 12 -9 -35 -14 -41 -5 -79 -2 -120 9 -33 8 -65 16 -72 16 -7
1 -10 5 -7 9 2 5 12 6 22 3 15 -5 15 -5 -1 6 -9 6 -22 8 -29 4 -7 -4 -8 -3 -4
4 4 7 3 12 -2 12 -9 0 -43 29 -109 93 -76 72 -105 206 -63 293 49 100 149 128
292 80 53 -18 85 -23 116 -19 47 6 55 -6 20 -31 l-22 -16 22 0 c21 0 72 43 72
61 0 4 7 15 16 24 12 12 14 19 5 28 -8 8 -27 7 -75 -2 -57 -11 -70 -11 -131 8
-70 22 -125 25 -188 10z m1190 -34 c17 -9 37 -23 44 -32 13 -15 10 -16 -31 -9
-31 4 -40 3 -30 -4 13 -8 13 -10 -2 -10 -10 0 -19 7 -19 15 -3 32 -4 36 -19
45 -26 17 23 12 57 -5z m538 -8 c-8 -13 -12 -26 -9 -29 3 -4 -4 -11 -15 -18
-12 -6 -21 -7 -21 -1 0 5 8 12 18 14 9 3 -5 3 -33 0 -36 -3 -46 -2 -35 6 8 5
18 7 22 5 4 -3 8 0 8 7 0 17 31 38 58 39 21 0 22 -1 7 -23z m-729 -8 c-4 6 -5
11 -1 11 16 0 72 -29 84 -43 7 -10 23 -17 35 -17 14 0 4 -10 -33 -30 -61 -34
-140 -91 -141 -102 0 -15 36 -7 60 13 l25 21 -30 -16 -30 -17 28 24 c42 35 59
32 40 -9 -19 -39 -11 -73 12 -54 13 11 14 10 9 -4 -3 -9 -11 -17 -18 -17 -6
-1 -15 -2 -21 -3 -5 -1 -44 -35 -85 -75 -63 -62 -61 -76 3 -23 9 9 19 13 22
10 3 -2 -22 -33 -55 -68 -58 -60 -63 -63 -114 -65 -38 -2 -66 -11 -97 -31 -24
-15 -57 -29 -73 -31 l-30 -3 34 29 c19 16 38 27 43 24 4 -2 7 1 7 8 0 7 3 10
6 7 3 -3 29 19 59 50 30 31 52 58 50 60 -2 2 -23 -11 -47 -30 -24 -19 -61 -45
-83 -58 -33 -20 -37 -21 -25 -6 15 19 14 19 -20 1 -19 -10 -51 -21 -71 -25
l-36 -7 51 55 c129 138 120 125 101 138 -11 8 -15 20 -10 33 10 31 64 81 88
82 15 0 17 2 7 6 -46 19 -53 59 -10 65 23 4 27 2 19 -8 -25 -31 26 -47 55 -18
37 36 3 104 -51 104 -16 0 -43 -9 -62 -21 -47 -28 -49 -18 -3 15 49 33 95 34
127 1 44 -43 26 -116 -35 -138 -8 -3 -2 -5 13 -4 28 1 49 18 53 41 10 58 16
73 35 88 11 10 25 15 30 12 5 -3 9 -1 9 4 0 17 44 30 64 20 13 -7 16 -7 12 1z
m946 -10 c15 -6 25 -15 22 -20 -3 -5 1 -6 9 -3 20 7 40 -22 35 -51 -3 -14 -1
-25 3 -25 5 0 9 -6 9 -14 0 -25 32 -44 85 -49 11 -2 26 -7 34 -11 10 -7 12 -5
6 3 -4 7 5 5 19 -4 44 -29 64 -78 43 -103 -9 -11 -8 -17 4 -26 8 -6 34 -37 58
-68 24 -32 46 -58 50 -58 3 -1 20 -12 36 -26 l30 -25 -37 16 c-21 8 -38 12
-38 9 0 -4 -8 0 -18 9 -10 10 -22 14 -25 11 -4 -4 -14 -1 -24 7 -15 12 -16 12
-10 -3 15 -42 -119 61 -217 166 -100 107 -192 182 -257 210 l-34 15 37 -1 c22
-1 35 -5 31 -11 -3 -6 -1 -7 6 -3 6 4 18 3 26 -4 9 -8 15 -8 20 0 4 6 1 9 -7
8 -7 -2 -12 2 -11 9 2 7 -3 10 -10 7 -7 -2 -13 4 -14 16 -2 22 36 38 58 24 8
-4 9 -3 5 5 -9 14 32 8 76 -10z m956 5 c54 -22 89 -60 108 -117 21 -63 15
-109 -28 -194 -31 -64 -83 -114 -184 -180 -14 -9 -14 -11 -3 -7 10 3 20 0 25
-7 4 -7 3 -10 -3 -6 -6 4 -27 0 -47 -8 -41 -17 -123 -25 -176 -17 -29 4 -32 6
-15 13 11 4 39 8 63 8 23 1 42 5 42 10 0 5 -57 7 -126 6 -69 -2 -123 0 -120 2
3 3 -18 20 -47 37 -82 49 -154 171 -132 223 6 15 10 11 18 -17 12 -40 28 -54
40 -37 5 7 5 2 2 -12 -5 -16 -4 -21 4 -17 6 4 12 1 12 -6 1 -7 2 -20 3 -28 0
-8 7 -14 14 -12 6 1 12 -2 12 -6 0 -28 110 -112 146 -112 11 0 2 8 -21 19 -97
44 -126 103 -130 261 -2 72 -1 98 4 70 7 -45 16 -41 24 10 2 14 5 -4 6 -39 1
-71 12 -79 13 -10 0 33 3 39 9 24 4 -11 8 -30 8 -42 1 -13 5 -23 9 -23 5 0 6
-19 2 -42 -6 -44 15 -108 41 -124 7 -4 9 -3 6 3 -3 5 -8 22 -11 37 -4 23 -2
26 9 16 11 -9 14 -6 17 17 4 40 38 45 38 5 0 -30 21 -58 34 -44 4 4 6 0 4 -8
-4 -16 -1 -17 90 -19 55 -1 63 -4 48 -13 -28 -16 -112 -21 -136 -8 -11 6 -20
8 -20 5 0 -16 77 -35 140 -35 79 0 151 23 208 67 20 15 40 28 44 28 18 0 22
15 34 127 8 71 1 99 -37 142 -86 99 -221 76 -248 -43 -15 -67 11 -111 67 -111
25 0 48 25 32 35 -19 12 5 28 29 20 30 -9 29 -64 -1 -92 -48 -43 -137 -35
-161 15 -15 28 -14 121 0 131 12 9 44 81 35 81 -4 0 -24 -11 -45 -24 -43 -26
-82 -24 -98 6 -10 19 -8 20 38 14 37 -5 63 -1 113 18 77 28 146 32 198 10z
m-735 -11 c18 -9 27 -18 20 -20 -7 -2 -21 0 -32 6 -68 37 -138 -38 -90 -96 18
-21 54 -13 52 13 -2 17 2 20 27 16 19 -3 30 -10 31 -21 0 -9 3 -11 5 -4 3 7 0
22 -6 34 -10 17 -18 20 -45 16 -35 -6 -63 12 -50 33 15 24 94 2 124 -34 17
-21 35 -21 27 0 -3 9 -2 12 5 9 6 -4 8 -13 5 -20 -3 -8 6 -21 20 -29 15 -10
24 -26 24 -41 0 -22 -3 -25 -26 -19 -25 6 -26 5 -20 -27 l7 -34 -22 25 c-12
14 -30 36 -40 49 -13 17 -23 21 -31 14 -25 -20 -57 -20 -86 -3 -49 30 -54 82
-12 128 25 27 68 29 113 5z m-1377 -24 c11 -18 -15 -34 -54 -34 -36 0 -37 -1
-38 -39 0 -29 -8 -48 -33 -75 l-32 -36 4 28 c4 25 2 28 -22 25 -37 -4 -41 33
-7 56 16 10 23 22 20 31 -4 8 -1 15 6 15 6 0 8 -4 5 -10 -11 -17 4 -11 47 20
41 30 91 39 104 19z m2092 -18 c62 -32 95 -116 73 -184 -21 -64 -111 -127
-181 -127 -17 0 -30 -5 -30 -12 0 -9 -3 -10 -8 -2 -4 6 -26 14 -50 17 -54 7
-92 31 -92 58 0 17 -5 20 -21 16 -25 -7 -58 26 -59 57 0 15 -6 17 -30 14 -24
-4 -30 -1 -30 14 0 12 8 18 23 19 21 0 21 1 2 9 l-20 8 20 7 c39 13 44 14 50
5 3 -5 -3 -14 -12 -20 -14 -8 -12 -9 12 -4 17 4 38 11 47 15 24 13 25 12 32
-17 16 -61 81 -114 141 -114 70 0 137 57 139 118 2 77 -54 128 -115 105 -34
-13 -38 -1 -7 21 30 21 71 20 116 -3z m-1003 -101 c10 -11 16 -20 13 -20 -3 0
-13 9 -23 20 -10 11 -16 20 -13 20 3 0 13 -9 23 -20z m435 -75 c0 -24 -4 -47
-10 -50 -6 -4 -10 15 -10 50 0 35 4 54 10 50 6 -3 10 -26 10 -50z m727 13 c-3
-7 -5 -2 -5 12 0 14 2 19 5 13 2 -7 2 -19 0 -25z m-2460 -35 c-3 -10 -5 -2 -5
17 0 19 2 27 5 18 2 -10 2 -26 0 -35z m-740 -5 c-3 -8 -6 -5 -6 6 -1 11 2 17
5 13 3 -3 4 -12 1 -19z m510 -264 c-3 -3 -12 -4 -19 -1 -8 3 -5 6 6 6 11 1 17
-2 13 -5z m2190 0 c-3 -3 -12 -4 -19 -1 -8 3 -5 6 6 6 11 1 17 -2 13 -5z
m-2277 -44 c-8 -5 -31 -9 -50 -9 l-35 2 35 7 c19 4 42 8 50 9 13 1 13 0 0 -9z
m2419 -6 c10 -9 -66 -3 -79 6 -10 7 -1 8 30 4 25 -4 47 -8 49 -10z"/>
<path d="M2631 3556 c2 -2 18 -6 34 -10 22 -5 26 -4 15 4 -14 9 -59 15 -49 6z"/>
<path d="M3148 3553 c7 -3 16 -2 19 1 4 3 -2 6 -13 5 -11 0 -14 -3 -6 -6z"/>
<path d="M2524 3522 c4 -6 -2 -15 -11 -21 -10 -6 -13 -11 -6 -11 6 0 15 5 18
10 3 6 11 10 16 10 6 0 7 -5 3 -12 -4 -7 -3 -8 4 -4 16 10 15 14 -9 27 -13 7
-19 7 -15 1z"/>
<path d="M2388 3360 c-1 -5 -32 -38 -67 -75 -81 -83 -67 -85 19 -3 36 35 68
63 72 63 3 0 10 4 15 9 5 5 3 6 -4 2 -7 -4 -13 -2 -13 3 0 14 -17 14 -22 1z"/>
<path d="M4388 3200 c-10 -10 -14 -22 -9 -24 4 -3 13 6 19 19 14 30 12 31 -10
5z"/>
<path d="M3975 3140 c9 -15 45 -32 45 -22 0 5 -12 14 -26 20 -14 7 -23 8 -19
2z"/>
<path d="M4290 3130 c-13 -8 -12 -10 3 -10 9 0 17 5 17 10 0 12 -1 12 -20 0z"/>
<path d="M4168 3103 c7 -3 16 -2 19 1 4 3 -2 6 -13 5 -11 0 -14 -3 -6 -6z"/>
<path d="M1798 3133 c-10 -2 -18 -9 -18 -14 0 -6 8 -5 20 1 11 6 20 13 20 15
0 3 -1 4 -2 4 -2 -1 -11 -3 -20 -6z"/>
<path d="M1966 2965 c4 -8 11 -15 16 -15 6 0 5 6 -2 15 -7 8 -14 15 -16 15 -2
0 -1 -7 2 -15z"/>
<path d="M3823 2965 c-3 -9 -3 -19 1 -22 3 -4 6 1 6 10 0 8 6 18 13 20 9 4 9
6 -1 6 -7 1 -15 -6 -19 -14z"/>
<path d="M4048 2963 c7 -3 16 -2 19 1 4 3 -2 6 -13 5 -11 0 -14 -3 -6 -6z"/>
<path d="M1830 2933 c0 -12 -6 -24 -12 -26 -8 -4 -9 -6 -2 -6 19 -2 34 23 24
39 -8 12 -10 11 -10 -7z"/>
<path d="M3954 2928 c-10 -12 -13 -18 -6 -14 7 4 19 2 27 -4 11 -9 20 -8 41 9
15 12 23 21 19 21 -5 0 -16 -7 -26 -16 -20 -18 -43 -10 -35 12 8 20 2 17 -20
-8z"/>
<path d="M1494 2916 c-55 -26 -128 -102 -175 -183 -98 -170 -113 -217 -107
-357 3 -94 6 -107 44 -186 31 -65 58 -103 115 -160 41 -41 83 -80 94 -86 19
-11 19 -11 -5 -23 -14 -7 -56 -45 -94 -85 -50 -51 -80 -94 -110 -156 -38 -79
-41 -91 -44 -186 -6 -139 10 -191 106 -356 47 -81 121 -159 176 -184 128 -59
256 3 256 125 0 110 -107 174 -164 98 -19 -26 -19 -30 -5 -55 12 -22 22 -27
52 -26 34 1 37 -1 37 -27 0 -34 -41 -69 -81 -69 -20 0 -41 12 -69 40 -74 74
-87 204 -26 257 36 31 34 53 -4 53 l-31 0 16 30 c9 17 24 30 34 30 10 0 26 9
35 19 17 19 17 20 -16 37 l-33 18 25 7 c24 7 24 7 2 8 -41 2 -116 -39 -100
-54 2 -2 23 1 47 6 52 12 87 4 71 -16 -6 -8 -38 -15 -74 -17 -63 -3 -64 -3
-60 22 3 14 18 37 34 52 30 28 27 43 -7 32 -15 -5 -15 -4 2 7 11 7 40 16 65
20 l45 6 -38 2 c-49 1 -86 -19 -131 -71 -37 -43 -50 -36 -17 10 18 26 21 33
21 51 0 5 21 23 47 40 54 36 30 44 -27 9 -19 -12 -43 -22 -52 -23 -15 -1 -15
2 3 36 23 45 45 59 94 59 28 0 38 5 42 19 3 13 17 21 43 25 40 6 90 39 78 52
-4 4 -16 -3 -26 -16 -13 -17 -32 -24 -70 -28 -40 -3 -50 -8 -42 -17 14 -17 2
-25 -42 -25 -38 0 -38 1 -24 23 8 12 16 27 17 32 5 34 81 85 125 85 21 0 25 3
15 9 -11 7 -10 10 5 13 18 5 18 5 1 13 -31 13 -139 -48 -201 -116 -31 -33 -56
-65 -56 -71 0 -5 -9 -23 -21 -39 -11 -16 -17 -34 -13 -40 5 -8 3 -9 -6 -4 -10
6 -12 4 -7 -9 4 -10 0 -27 -9 -39 -16 -21 -16 -21 -9 13 4 19 8 47 9 62 1 14
5 30 9 34 4 5 5 0 1 -11 -7 -18 -6 -19 10 -6 15 13 15 16 2 29 -13 13 -13 18
0 44 8 16 18 27 22 24 4 -2 28 25 52 61 25 36 56 77 70 91 46 45 124 65 84 21
-20 -22 -8 -26 15 -5 9 8 36 19 61 25 l45 10 -47 -5 c-40 -4 -48 -2 -48 11 0
13 8 15 48 11 l47 -5 -40 9 c-22 5 -53 17 -70 27 l-30 16 18 -20 c27 -31 5
-36 -41 -10 -28 14 -60 48 -97 100 -30 42 -55 80 -55 84 0 4 7 -2 15 -13 8
-10 15 -14 15 -7 0 6 -7 18 -15 26 -8 8 -11 17 -8 21 4 3 1 6 -6 6 -7 0 -9 5
-5 12 4 7 3 8 -4 4 -8 -5 -12 0 -12 12 0 11 -7 25 -15 32 -22 18 -18 3 9 -45
15 -24 21 -46 17 -54 -6 -8 -11 -4 -19 16 -18 47 -26 77 -28 103 0 14 -3 39
-6 55 -3 17 -3 22 -1 12 2 -9 9 -15 14 -11 6 3 9 0 7 -8 -5 -23 72 -155 116
-199 45 -46 158 -104 182 -95 14 5 14 8 0 21 -8 8 -22 15 -32 15 -9 0 -32 10
-51 21 -42 26 -93 75 -68 66 13 -6 12 -1 -5 23 l-21 30 39 0 c44 0 56 -8 42
-25 -8 -9 2 -14 42 -17 37 -4 57 -12 69 -27 20 -25 31 -27 22 -6 -7 20 -55 45
-86 45 -16 0 -26 7 -30 20 -4 15 -14 20 -42 20 -49 0 -71 14 -94 59 -18 34
-18 37 -3 36 9 -1 33 -11 52 -23 57 -36 81 -27 27 9 -26 17 -46 36 -45 43 2 6
-7 25 -20 43 -33 47 -27 63 9 20 17 -20 35 -34 41 -31 7 4 8 2 4 -4 -10 -17
47 -42 91 -41 37 2 36 2 -9 8 -27 4 -54 13 -60 20 -10 11 -10 12 0 7 28 -16
29 7 2 32 -16 15 -31 38 -34 52 -4 25 -3 25 58 23 33 -1 53 1 43 3 -9 3 -24
19 -32 35 -15 29 -15 29 15 29 38 0 40 24 5 52 -30 23 -48 85 -39 136 14 81
84 162 140 162 35 0 74 -38 74 -70 0 -27 -2 -29 -30 -24 -31 7 -60 -8 -60 -30
0 -6 5 -3 11 7 12 21 57 23 65 2 9 -22 23 -18 35 9 14 31 -14 94 -48 107 -50
19 -82 11 -128 -32 -52 -48 -75 -109 -75 -199 0 -57 18 -87 60 -103 11 -4 9
-6 -5 -6 -12 -1 -26 4 -32 10 -7 7 -12 3 -17 -15 -4 -17 -12 -24 -26 -23 -11
1 -20 5 -20 9 0 4 -5 8 -11 8 -6 0 -17 7 -25 15 -12 11 -12 19 -4 35 6 11 13
20 16 20 3 0 2 -5 -2 -12 -5 -7 -2 -9 9 -5 10 4 14 2 12 -6 -6 -16 12 -44 22
-34 4 5 3 11 -2 15 -12 8 -16 35 -18 117 -2 110 70 220 160 244 59 15 138 -6
163 -44 37 -57 16 -155 -40 -185 -32 -17 -73 -8 -86 18 -15 30 -27 41 -18 17
13 -36 37 -55 68 -55 62 0 106 55 106 133 0 120 -129 182 -256 123z m-146
-553 c20 -19 31 -32 25 -28 -8 4 -13 -1 -13 -12 -1 -15 -5 -13 -25 10 -25 28
-56 114 -54 151 0 12 7 -3 15 -33 10 -39 25 -64 52 -88z m-12 -869 c-19 -20
-35 -50 -43 -80 -8 -35 -11 -41 -12 -22 -1 35 32 124 56 150 16 18 18 18 24 1
5 -13 -3 -27 -25 -49z m113 -156 c8 -21 8 -35 1 -42 -15 -15 -12 -115 5 -172
16 -54 73 -121 111 -130 41 -10 93 5 111 32 20 31 21 77 3 99 -13 15 -15 15
-22 -4 -10 -28 -54 -28 -69 0 -15 29 3 67 36 75 87 22 153 -119 91 -193 -31
-37 -107 -57 -160 -42 -94 26 -159 132 -161 261 -1 42 2 75 6 72 7 -4 21 37
14 44 -2 2 -15 -8 -28 -23 -18 -22 -25 -25 -29 -14 -7 17 9 41 37 57 32 18 42
14 54 -20z m46 -8 c-28 -12 -37 -12 -30 0 3 6 16 10 28 9 21 0 21 -1 2 -9z"/>
<path d="M1760 2936 c0 -2 7 -7 16 -10 8 -3 12 -2 9 4 -6 10 -25 14 -25 6z"/>
<path d="M4130 2922 c-75 -37 -104 -137 -59 -208 24 -40 47 -54 86 -54 34 0
46 8 62 37 17 32 4 72 -26 79 -13 4 -27 4 -30 0 -4 -3 3 -6 15 -6 54 0 45 -92
-10 -98 -84 -10 -140 115 -87 193 27 39 106 60 164 44 113 -31 189 -193 151
-322 -21 -74 -20 -78 11 -38 22 28 27 31 35 17 12 -22 3 -34 -39 -51 -38 -16
-52 -9 -53 25 0 11 -3 11 -12 2 -7 -7 -21 -12 -32 -12 -17 1 -16 4 9 17 41 22
45 30 45 94 0 111 -57 218 -125 235 -68 17 -128 -24 -128 -87 0 -37 20 -61 33
-39 6 9 6 16 0 18 -19 7 -10 58 13 80 37 35 80 29 127 -18 74 -74 88 -194 28
-253 -37 -38 -36 -57 2 -57 30 0 30 0 15 -29 -8 -16 -23 -32 -32 -35 -10 -2
10 -4 43 -3 61 2 62 2 58 -23 -3 -14 -18 -37 -34 -52 -27 -25 -26 -49 2 -32 7
4 8 3 4 -4 -4 -7 -19 -10 -34 -7 -23 4 -24 4 -7 -4 16 -8 12 -10 -25 -12 -40
-2 -41 -3 -11 -6 47 -6 86 13 131 65 43 49 49 49 23 -1 -9 -18 -18 -39 -19
-47 -3 -17 -38 -46 -79 -65 -29 -14 -29 -14 -5 -15 14 0 41 10 60 22 70 43 87
19 30 -42 -23 -24 -36 -30 -70 -30 -33 0 -43 -4 -47 -19 -3 -13 -17 -21 -43
-25 -40 -6 -90 -39 -78 -52 4 -4 16 3 26 16 13 17 32 24 70 28 40 3 50 8 42
17 -14 17 -2 25 36 25 30 0 33 -3 31 -27 -2 -35 -77 -100 -124 -109 -18 -3
-30 -10 -27 -15 3 -5 0 -9 -5 -9 -6 0 -11 -4 -11 -10 0 -31 132 34 186 91 55
58 114 153 118 190 2 17 9 36 16 42 10 10 11 6 7 -18 -3 -16 -9 -39 -13 -49
-5 -14 -4 -17 5 -12 8 6 7 -3 -3 -28 -8 -20 -12 -36 -8 -36 4 0 1 -4 -6 -9
-12 -7 -19 -25 -21 -56 -1 -5 -5 -5 -9 2 -5 7 -29 -19 -67 -73 -42 -60 -70
-89 -99 -104 -42 -21 -59 -13 -35 16 10 12 5 12 -23 -3 -20 -10 -30 -19 -22
-21 8 -2 14 -10 14 -17 0 -7 -6 -15 -14 -17 -8 -2 2 -11 22 -22 37 -18 37 -18
19 2 -26 29 -7 34 39 11 29 -14 57 -43 99 -103 33 -47 63 -82 67 -80 10 7 20
-14 12 -27 -4 -7 -14 1 -27 20 -11 18 -22 29 -25 26 -3 -3 5 -20 18 -37 13
-17 23 -37 23 -44 0 -7 4 -11 9 -8 5 4 7 12 4 20 -3 7 0 16 7 20 7 4 9 4 5 -1
-4 -4 -2 -17 4 -28 15 -28 19 -105 6 -113 -6 -4 -8 1 -4 14 4 11 1 26 -6 33
-7 8 -22 32 -33 53 -34 66 -111 143 -177 175 -64 32 -88 38 -88 21 0 -5 5 -10
11 -10 5 0 7 -4 4 -10 -3 -6 4 -10 17 -10 13 0 40 -11 60 -24 30 -18 35 -25
25 -35 -9 -10 -9 -11 4 -6 17 6 32 -8 35 -33 2 -8 9 -21 18 -31 14 -16 13 -17
-22 -13 -57 5 -66 10 -53 26 9 11 2 14 -41 18 -38 4 -57 11 -70 28 -10 13 -22
20 -26 16 -12 -13 38 -46 78 -52 26 -4 40 -12 43 -25 4 -15 14 -19 47 -19 34
0 47 -6 70 -30 37 -40 45 -69 16 -62 -11 3 -34 14 -51 24 -46 28 -104 23 -153
-11 -22 -16 -44 -36 -48 -43 -8 -14 2 -7 59 39 16 13 42 23 60 23 30 0 106
-43 108 -61 3 -19 6 -25 28 -69 l22 -45 -36 43 c-20 23 -42 39 -47 36 -7 -4
-8 -2 -4 4 10 17 -47 42 -91 41 -37 -2 -36 -2 9 -8 27 -4 54 -13 60 -20 10
-11 10 -12 1 -7 -7 4 -21 2 -30 -3 -15 -9 -15 -10 -2 -11 20 0 56 -39 61 -65
3 -17 -4 -21 -52 -26 -30 -3 -49 -6 -43 -7 10 -2 43 -51 43 -65 0 -2 -13 -2
-30 1 -39 6 -41 -20 -4 -51 61 -53 48 -183 -26 -257 -31 -31 -48 -40 -73 -40
-40 0 -77 34 -77 72 0 24 2 26 38 21 33 -4 39 -2 50 21 29 63 -43 121 -108 86
-48 -26 -75 -120 -51 -183 17 -43 76 -80 137 -85 109 -9 201 63 305 239 72
122 92 196 87 322 -3 96 -6 108 -44 187 -30 62 -60 105 -110 156 -38 40 -80
78 -94 85 -24 12 -24 12 -5 23 11 6 53 44 93 85 53 54 83 96 115 159 39 80 42
90 45 187 6 141 -8 187 -107 358 -97 167 -240 245 -351 189z m386 -463 c-9
-53 -44 -136 -61 -143 -28 -10 -23 34 6 59 20 16 34 41 42 75 14 61 22 66 13
9z m-11 -1001 c8 -28 15 -61 14 -72 0 -12 -6 1 -13 27 -7 27 -27 63 -43 80
-19 20 -28 39 -25 52 4 18 6 17 28 -8 13 -15 30 -51 39 -79z m52 70 c-3 -8 -6
-5 -6 6 -1 11 2 17 5 13 3 -3 4 -12 1 -19z m-131 -185 c16 -14 22 -28 17 -39
-5 -15 -9 -14 -30 11 -13 15 -26 25 -28 23 -2 -2 3 -26 11 -53 39 -126 -39
-293 -151 -324 -58 -16 -137 5 -164 44 -53 78 3 203 87 193 53 -6 63 -89 11
-96 -14 -3 -28 3 -36 14 -17 23 -36 6 -36 -33 0 -64 61 -106 128 -89 67 17
125 124 125 232 0 68 -7 83 -44 100 -24 10 -26 13 -10 14 11 0 25 -5 31 -11 7
-7 12 -3 17 15 8 31 38 31 72 -1z"/>
<path d="M1539 2436 c9 -11 8 -15 -5 -20 -19 -7 -80 2 -107 16 -16 8 -17 7 -7
-11 14 -27 61 -51 97 -50 l28 1 -25 7 -25 7 33 18 c27 14 31 20 21 32 -6 8
-14 14 -16 14 -3 0 0 -6 6 -14z"/>
<path d="M4251 2436 c-10 -12 -6 -18 26 -35 l38 -20 -30 -2 c-22 -1 -25 -3 -9
-6 31 -6 90 21 104 47 10 19 10 21 -7 12 -25 -13 -91 -22 -109 -15 -11 4 -12
9 -3 19 6 8 9 14 6 14 -2 0 -10 -6 -16 -14z"/>
<path d="M4213 2383 c-12 -2 -26 -10 -32 -17 -20 -24 77 -117 121 -116 7 1 -2
7 -21 16 -19 8 -50 31 -69 51 l-35 37 29 12 c16 7 33 10 38 6 5 -3 6 0 2 6 -4
7 -8 11 -9 11 -1 -1 -12 -4 -24 -6z"/>
<path d="M1588 2370 c12 -5 22 -15 22 -21 0 -19 -69 -78 -103 -88 -23 -6 -26
-9 -11 -10 25 -1 93 46 116 81 19 29 8 48 -26 47 -20 0 -20 -1 2 -9z"/>
<path d="M4531 2248 c-1 -9 -4 -18 -8 -20 -5 -1 -17 -20 -28 -41 -10 -22 -37
-60 -58 -85 l-39 -47 48 50 c27 27 53 49 57 47 5 -1 6 2 3 7 -4 5 3 25 15 45
11 20 18 41 16 48 -4 8 -6 7 -6 -4z"/>
<path d="M4354 2124 c-18 -14 -18 -15 4 -4 12 6 22 13 22 15 0 8 -5 6 -26 -11z"/>
<path d="M1360 2095 c13 -14 26 -25 28 -25 3 0 -5 11 -18 25 -13 14 -26 25
-28 25 -3 0 5 -11 18 -25z"/>
<path d="M1668 2073 c29 -15 52 -32 52 -38 0 -13 -45 -57 -75 -73 -19 -11 -19
-11 -1 -12 23 0 86 65 86 88 -1 10 -20 26 -48 40 -66 31 -77 28 -14 -5z"/>
<path d="M4113 2074 c-24 -14 -43 -32 -43 -40 0 -19 67 -84 88 -84 11 0 7 5
-11 15 -30 16 -66 53 -67 70 0 6 24 23 53 38 28 15 45 27 37 26 -8 0 -34 -11
-57 -25z"/>
<path d="M4193 1943 c9 -2 23 -2 30 0 6 3 -1 5 -18 5 -16 0 -22 -2 -12 -5z"/>
<path d="M4162 1923 c-27 -5 -92 -67 -92 -87 0 -14 88 -72 96 -63 2 2 -16 15
-41 28 -25 13 -45 29 -45 35 0 23 66 73 110 82 43 10 19 14 -28 5z"/>
<path d="M1640 1913 c22 -8 80 -65 80 -78 0 -6 -23 -23 -52 -38 -63 -33 -52
-36 14 -5 29 14 47 30 48 40 0 23 -66 88 -88 87 -14 0 -14 -2 -2 -6z"/>
<path d="M4400 1807 c0 -2 15 -16 33 -33 l32 -29 -29 33 c-28 30 -36 37 -36
29z"/>
<path d="M1344 1758 c-21 -24 -42 -42 -47 -40 -5 1 -6 -2 -2 -8 4 -6 1 -18 -6
-26 -9 -12 -10 -17 0 -27 10 -9 11 -8 6 5 -5 12 -1 20 9 24 9 3 16 12 16 20 0
8 5 14 12 14 6 0 8 3 4 7 -3 4 8 22 26 40 17 18 29 33 26 33 -3 0 -23 -19 -44
-42z"/>
<path d="M1434 1744 c-18 -14 -18 -14 6 -3 31 14 36 19 24 19 -6 0 -19 -7 -30
-16z"/>
<path d="M4520 1648 c0 -9 5 -20 10 -23 13 -8 13 5 0 25 -8 13 -10 13 -10 -2z"/>
<path d="M1508 1609 c37 -11 118 -87 106 -99 -5 -4 -18 -10 -29 -13 -19 -4
-19 -5 1 -6 12 0 26 5 32 12 23 27 -77 119 -125 116 -10 0 -3 -5 15 -10z"/>
<path d="M4177 1523 c-11 -11 14 -33 37 -32 19 1 18 2 -4 8 -14 4 -24 13 -22
19 2 13 -1 15 -11 5z"/>
<path d="M4265 1490 c3 -5 13 -7 23 -4 16 5 16 5 0 -8 -9 -7 -24 -18 -34 -24
-14 -8 -15 -12 -4 -19 8 -5 11 -4 7 2 -15 24 71 24 116 1 17 -9 18 -8 2 16
-16 25 -61 46 -97 46 -11 0 -17 -4 -13 -10z"/>
<path d="M1930 980 c-9 -6 -10 -10 -3 -10 6 0 15 5 18 10 8 12 4 12 -15 0z"/>
<path d="M3860 980 c8 -5 20 -10 25 -10 6 0 3 5 -5 10 -8 5 -19 10 -25 10 -5
0 -3 -5 5 -10z"/>
<path d="M1813 963 c13 -3 17 -11 14 -24 -5 -17 -3 -18 9 -8 17 14 1 40 -25
38 -13 -1 -12 -2 2 -6z"/>
<path d="M3966 953 c-4 -9 -2 -21 4 -27 8 -8 9 -6 5 5 -9 25 13 34 35 14 10
-9 25 -15 32 -12 9 4 8 6 -3 6 -9 1 -22 8 -29 16 -16 20 -36 19 -44 -2z"/>
<path d="M4393 948 c-12 -6 -27 -23 -34 -39 -6 -16 -15 -29 -19 -29 -4 0 -40
8 -81 19 -86 21 -219 38 -159 19 l35 -10 -50 -13 c-27 -7 -52 -10 -55 -7 -3 4
-27 8 -54 9 -29 1 -56 9 -67 19 -23 20 -50 4 -42 -25 7 -26 -25 -36 -49 -14
-24 21 -42 25 -92 17 -24 -4 -34 -9 -26 -14 15 -10 -18 -30 -49 -30 -24 0 -37
16 -19 23 7 3 3 6 -9 6 -19 1 -23 -4 -23 -27 0 -23 -6 -30 -37 -41 -50 -18
-97 -48 -163 -105 -30 -26 -68 -55 -84 -63 l-30 -16 24 -19 c28 -23 18 -34
-42 -44 -21 -4 -38 -12 -38 -20 0 -14 23 -40 42 -46 32 -11 -59 -73 -131 -89
-22 -5 -46 -3 -65 5 -17 7 -37 11 -44 8 -30 -10 -44 20 -40 87 3 65 3 66 -24
69 -17 2 -34 -4 -48 -18 l-22 -22 -14 21 c-15 21 -49 27 -72 12 -10 -6 -11
-17 -1 -54 16 -64 0 -87 -71 -103 -67 -15 -134 2 -186 48 -34 30 -35 32 -16
39 12 4 26 17 32 29 12 22 11 23 -45 35 -48 11 -58 24 -33 44 l21 17 -31 20
c-16 10 -58 43 -92 72 -69 59 -89 64 -38 10 88 -93 95 -107 33 -65 -19 13 -32
27 -27 32 4 5 1 5 -7 0 -10 -6 -4 -16 27 -42 23 -19 53 -49 68 -66 14 -18 23
-25 19 -17 -4 8 2 4 13 -9 12 -15 24 -21 32 -16 8 5 11 4 6 -3 -3 -5 0 -13 6
-16 7 -3 3 -3 -9 0 -28 7 -29 -5 -4 -57 11 -23 14 -36 7 -30 -7 6 -15 9 -18 6
-3 -3 -11 3 -19 12 -13 17 -13 17 6 3 19 -14 19 -14 6 3 -8 10 -20 16 -27 13
-8 -3 -13 0 -11 6 1 7 -3 12 -10 13 -14 0 -44 24 -64 51 -8 10 -39 41 -69 69
-30 27 -79 77 -109 110 -55 60 -92 91 -76 64 5 -8 -7 0 -26 16 -19 17 -36 31
-39 33 -2 2 10 0 28 -3 18 -3 52 -17 74 -32 30 -18 57 -26 96 -28 49 -2 53 -1
36 12 -10 7 -36 19 -56 25 -32 9 -38 15 -38 40 0 23 -4 28 -22 27 -13 0 -17
-3 -10 -6 15 -6 6 -23 -13 -23 -8 0 -26 5 -42 11 -22 8 -24 12 -13 19 15 10
11 11 -74 14 -15 1 -30 -4 -33 -10 -6 -16 -29 -25 -47 -18 -10 4 -14 16 -11
35 4 33 -9 37 -45 12 -13 -10 -44 -17 -72 -17 -26 -1 -48 -4 -48 -7 0 -3 -12
-4 -27 -2 -22 4 -25 2 -13 -6 11 -9 4 -10 -30 -5 -56 8 -63 14 -19 15 31 1 32
2 9 9 -25 7 -24 7 10 18 71 23 -47 5 -225 -34 -15 -4 -24 4 -35 28 -11 24 -23
34 -42 36 -26 3 -27 1 -22 -27 5 -24 3 -31 -10 -31 -9 0 -16 -7 -16 -16 0 -9
-17 -55 -39 -103 -62 -139 -74 -220 -45 -322 28 -98 90 -157 199 -185 70 -19
123 -17 191 7 54 19 65 19 127 8 76 -14 104 -4 73 26 -9 9 -16 20 -16 24 0 18
-54 61 -76 61 -13 0 -24 4 -24 8 0 17 79 52 118 52 34 0 41 -4 52 -29 28 -69
139 -145 184 -128 20 8 11 34 -14 42 -18 6 -35 34 -26 43 3 2 22 -9 43 -26 61
-48 106 -66 146 -58 19 4 40 13 47 20 9 12 21 10 76 -16 86 -40 179 -51 269
-33 128 27 199 78 243 175 l26 54 13 -41 c8 -23 32 -62 53 -86 98 -111 313
-144 466 -71 55 26 56 26 94 9 52 -23 94 -14 160 35 29 22 55 38 57 36 8 -8
-10 -36 -28 -41 -22 -7 -25 -33 -4 -41 43 -17 146 56 176 124 13 29 18 32 58
32 41 0 111 -31 111 -49 0 -4 -14 -11 -32 -16 -31 -10 -100 -91 -91 -107 6
-12 47 -10 97 4 40 10 53 9 113 -10 80 -26 127 -28 202 -6 80 22 131 60 165
124 57 105 46 243 -34 411 -16 34 -27 66 -24 71 4 5 -4 12 -16 15 -18 5 -21
11 -16 34 6 33 -1 40 -31 27z m-2953 -53 c16 -48 0 -96 -60 -184 -27 -41 -50
-78 -50 -84 0 -6 -2 -8 -5 -5 -3 3 -1 18 5 34 13 35 -1 22 -25 -21 l-17 -30 7
30 c4 17 21 62 38 100 17 39 31 87 31 108 0 20 4 37 8 37 15 0 30 -43 24 -71
-12 -62 13 -20 28 46 5 22 4 26 -4 15 -8 -12 -10 -10 -10 12 0 14 -3 34 -6 42
-5 12 -2 15 9 10 9 -3 21 -21 27 -39z m2960 30 c-7 -9 -10 -25 -6 -41 5 -17 3
-23 -4 -19 -15 9 -12 -36 5 -65 14 -25 14 -25 15 16 0 24 6 47 15 54 13 11 15
7 15 -27 0 -25 14 -69 35 -116 19 -42 35 -84 34 -94 0 -15 -2 -15 -9 3 -5 12
-14 25 -21 30 -9 5 -10 2 -5 -12 15 -36 17 -59 3 -28 -8 17 -31 53 -51 81 -45
62 -66 113 -66 155 0 35 23 78 42 78 7 0 6 -5 -2 -15z m-241 -39 c-2 -2 -26
-6 -54 -10 -34 -4 -45 -3 -35 4 14 9 99 15 89 6z m-2395 -37 c37 -2 -23 -17
-71 -18 -24 -1 -43 -5 -43 -11 0 -11 57 -12 142 -1 32 4 59 3 61 -2 1 -4 19
-9 39 -10 20 -1 34 -5 32 -9 -2 -3 16 -18 41 -32 66 -39 141 -184 115 -226 -6
-9 -12 -1 -21 28 -14 48 -29 55 -29 15 0 -22 2 -25 10 -13 7 11 10 6 10 -20
l0 -35 -16 30 c-9 18 -13 42 -10 58 4 19 2 26 -5 21 -7 -4 -10 -1 -7 6 4 13
-13 38 -67 94 -48 51 -86 76 -114 76 -22 -1 -21 -3 13 -15 65 -23 115 -84 131
-160 9 -45 12 -156 4 -190 -6 -27 -7 -26 -9 15 l-3 45 -7 -40 -7 -40 -3 45
c-2 38 -3 41 -10 20 -6 -19 -9 -12 -11 35 l-2 60 -7 -50 c-8 -56 -12 -36 -18
86 -1 20 -11 47 -22 60 l-20 24 6 -29 c6 -25 5 -28 -11 -23 -12 5 -16 3 -12
-7 7 -18 -17 -51 -31 -43 -5 4 -8 15 -5 25 4 17 -23 50 -36 45 -3 -2 -6 1 -6
6 0 18 -12 21 -80 22 -57 1 -66 4 -52 14 18 13 108 14 142 1 11 -4 4 2 -15 13
-71 41 -254 18 -315 -39 -40 -37 -39 -20 0 22 39 40 39 41 7 19 -45 -32 -76
-85 -92 -158 -24 -118 5 -189 96 -233 56 -28 105 -22 145 16 78 75 52 202 -36
180 -20 -5 -25 -12 -23 -29 5 -32 -29 -35 -43 -3 -17 36 2 73 45 91 40 17 99
10 121 -15 20 -22 31 -120 14 -120 -7 0 -9 -10 -7 -25 3 -14 2 -25 -2 -25 -4
0 -10 -8 -14 -17 -3 -10 -9 -23 -12 -30 -3 -7 16 -1 42 12 45 23 65 23 92 2
25 -19 12 -30 -30 -24 -31 4 -63 -1 -116 -19 -104 -34 -166 -32 -227 8 -58 39
-84 91 -85 168 0 74 42 161 102 215 78 69 99 85 111 85 8 0 7 3 -2 9 -9 6 -1
13 30 24 60 22 86 26 138 21 24 -2 53 -4 65 -5z m2481 -20 c25 -11 30 -17 15
-14 -21 5 -20 3 8 -13 18 -10 29 -22 25 -27 -4 -4 -2 -5 6 0 7 4 16 4 20 -1 3
-5 27 -26 53 -47 32 -25 57 -58 78 -101 40 -82 47 -130 26 -193 -39 -118 -157
-162 -293 -111 -38 14 -78 21 -115 20 -47 -1 -56 2 -51 14 12 33 52 36 100 9
25 -14 47 -25 49 -25 1 0 -5 18 -14 39 -9 22 -20 37 -24 34 -5 -2 -9 8 -9 24
-5 108 6 138 57 152 66 18 123 -9 137 -67 6 -24 -15 -52 -38 -52 -18 0 -28 17
-15 25 17 10 -8 35 -35 35 -13 0 -33 -8 -46 -19 -49 -39 -17 -150 54 -185 94
-46 218 44 217 158 -1 61 -23 161 -36 161 -5 0 -26 13 -46 28 -82 63 -230 87
-313 53 -39 -17 -48 -31 -11 -16 25 9 98 8 126 -3 8 -3 22 -7 30 -10 8 -3 -23
-5 -69 -6 -72 0 -88 -4 -108 -22 -14 -14 -23 -34 -23 -51 0 -39 -34 -35 -38 4
-2 19 -8 25 -18 21 -17 -6 -17 -3 -4 32 15 39 -6 21 -28 -23 -13 -27 -17 -49
-12 -80 4 -23 4 -45 1 -48 -3 -3 -12 -22 -18 -42 -7 -21 -11 -26 -9 -12 2 14
0 36 -4 50 -6 18 -8 8 -10 -40 l-2 -65 -13 40 c-10 32 -13 35 -14 15 -1 -44
-4 -59 -10 -55 -11 6 7 222 22 257 19 46 75 101 118 116 l34 12 -33 -5 c-35
-5 -46 -12 -95 -62 -55 -55 -73 -80 -69 -93 3 -7 0 -10 -6 -6 -6 4 -8 -1 -5
-13 3 -14 0 -19 -12 -18 -12 1 -22 -10 -29 -31 -12 -36 -26 -33 -26 6 0 64 73
164 151 207 52 29 59 30 167 29 61 -1 112 2 112 7 0 5 -17 9 -37 9 -21 0 -49
4 -63 7 -23 7 -21 8 15 14 57 10 133 1 180 -22z m-2418 5 c-3 -3 -12 -4 -19
-1 -8 3 -5 6 6 6 11 1 17 -2 13 -5z m1907 -3 c-5 -4 -41 -33 -80 -64 -40 -31
-81 -67 -91 -81 -11 -14 -44 -45 -73 -70 -29 -24 -63 -61 -77 -81 -15 -22 -30
-34 -39 -31 -7 3 -16 0 -20 -6 -5 -7 -2 -8 6 -3 9 5 11 4 6 -3 -4 -7 -14 -12
-22 -12 -8 0 -27 -8 -42 -17 -27 -17 -27 -17 -9 3 9 11 17 30 17 42 0 11 -8
26 -17 32 -15 10 -15 11 -1 6 9 -2 24 2 35 10 10 9 12 13 6 9 -24 -12 -13 4
11 17 13 7 50 37 82 67 54 50 46 54 -18 10 -39 -28 -44 -23 -8 7 17 15 29 29
26 31 -2 3 13 20 35 40 31 28 48 35 86 37 31 2 66 13 100 32 46 27 109 45 87
25z m273 3 c-3 -3 -12 -4 -19 -1 -8 3 -5 6 6 6 11 1 17 -2 13 -5z m-162 -42
c-6 -4 -27 -21 -48 -36 -21 -15 -42 -38 -47 -49 -4 -12 -25 -39 -45 -60 -31
-31 -35 -40 -25 -52 10 -12 10 -21 0 -45 -7 -17 -17 -33 -23 -37 -6 -4 -7 -1
-2 7 5 9 4 11 -4 6 -6 -4 -9 -11 -6 -16 7 -12 -25 -28 -47 -25 -10 2 -18 -1
-18 -6 0 -5 5 -9 12 -9 16 0 48 -31 48 -47 0 -7 -11 -13 -24 -13 -13 0 -27 -6
-30 -12 -3 -7 -4 1 -3 17 2 24 -2 31 -19 33 -43 6 -64 -53 -33 -93 25 -30 55
-32 109 -6 50 24 51 19 3 -14 -66 -44 -133 -25 -150 44 -7 30 14 72 45 87 33
17 36 22 7 16 -34 -6 -65 -47 -65 -88 0 -26 -6 -36 -36 -55 -20 -12 -49 -23
-64 -25 -16 -2 -32 -4 -37 -5 -26 -5 -54 3 -74 22 -18 16 -20 19 -6 15 12 -4
16 -2 11 6 -5 7 -2 9 8 6 8 -4 15 0 15 7 0 8 -8 13 -18 12 -10 -1 -16 -4 -14
-8 3 -3 -10 -6 -27 -7 -29 -1 -27 2 32 35 46 26 107 79 205 177 77 78 160 152
184 165 24 13 41 18 36 12 -5 -8 3 -7 23 3 16 8 44 18 62 21 19 3 40 10 49 15
20 12 28 13 16 2z m-1792 -23 c9 -6 23 -7 29 -3 7 4 8 3 4 -4 -5 -8 1 -12 15
-12 38 0 111 -55 224 -170 120 -124 148 -147 226 -190 l54 -30 -35 2 c-19 1
-41 6 -48 11 -8 7 -16 7 -23 0 -8 -8 -7 -13 2 -18 8 -6 10 -4 4 5 -5 8 -3 11
6 8 8 -3 13 -10 12 -16 -2 -7 4 -9 14 -5 11 5 14 3 8 -6 -10 -17 -65 -39 -90
-36 -41 5 -75 17 -69 26 3 5 -1 6 -9 4 -18 -8 -50 29 -53 62 -1 16 -2 29 -3
31 -1 1 0 4 2 6 5 8 -36 45 -45 40 -5 -3 0 -15 11 -25 30 -28 28 -83 -4 -114
-38 -38 -82 -34 -144 15 -28 22 -51 43 -51 47 0 4 10 -3 23 -14 31 -29 81 -53
110 -53 52 0 87 69 51 104 -29 29 -80 13 -55 -18 8 -10 4 -12 -19 -8 -38 5
-39 32 -2 54 25 16 25 17 5 18 -24 0 -86 57 -77 71 3 5 0 9 -5 9 -17 0 -13 21
5 35 15 10 11 17 -30 59 -25 26 -46 54 -46 62 0 8 -3 14 -7 14 -5 1 -23 14
-42 30 l-34 29 34 -6 c19 -3 42 -9 52 -14z m-342 -112 c19 -13 33 -31 32 -41
-1 -13 4 -16 20 -12 22 5 40 -11 57 -51 7 -17 18 -23 40 -23 40 0 42 -30 3
-31 -25 0 -26 -1 -8 -9 21 -8 21 -9 -30 -25 -22 -6 -28 12 -8 25 14 8 12 9
-12 4 -16 -4 -38 -11 -47 -15 -24 -13 -25 -12 -31 20 -21 105 -166 144 -244
66 -28 -28 -33 -40 -33 -80 0 -39 5 -52 30 -77 31 -31 54 -33 105 -13 18 7 17
5 -4 -18 -45 -50 -137 -26 -181 45 -28 46 -27 125 3 169 35 54 115 89 202 89
59 0 78 -4 106 -23z m2619 -3 c18 -10 47 -36 64 -57 26 -33 31 -47 30 -92 -1
-111 -114 -194 -192 -139 -31 22 -27 34 7 21 91 -34 157 99 85 174 -76 79
-215 50 -245 -52 -7 -21 -13 -39 -14 -39 -2 0 -19 7 -38 15 -41 17 -71 20 -44
4 20 -12 14 -30 -8 -24 -51 16 -51 17 -30 25 19 8 19 9 -2 9 -16 1 -23 7 -23
21 0 16 4 19 18 12 22 -12 42 -5 42 16 1 29 35 61 58 55 16 -4 21 0 24 19 2
14 16 30 38 41 48 25 182 20 230 -9z m-550 -109 c0 -24 -4 -47 -10 -50 -6 -4
-10 15 -10 50 0 35 4 54 10 50 6 -3 10 -26 10 -50z m-75 -36 c-7 -30 -6 -31
19 -25 23 6 26 3 26 -18 0 -37 -123 -126 -174 -126 -30 0 -42 16 -26 35 8 9
22 12 41 8 40 -8 62 13 55 50 -5 22 1 37 26 68 17 21 33 39 35 39 3 0 1 -14
-2 -31z m802 -1 c-3 -7 -5 -2 -5 12 0 14 2 19 5 13 2 -7 2 -19 0 -25z m-2345
-73 c-6 -35 15 -58 49 -51 17 3 32 0 39 -9 16 -20 4 -35 -29 -35 -40 0 -166
94 -166 123 0 18 5 21 26 19 24 -3 26 0 22 25 l-4 28 34 -38 c25 -27 33 -44
29 -62z m1615 -27 c-3 -7 -5 -2 -5 12 0 14 2 19 5 13 2 -7 2 -19 0 -25z m-57
-12 c0 -3 -4 -8 -10 -11 -5 -3 -10 -1 -10 4 0 6 5 11 10 11 6 0 10 -2 10 -4z
m-550 -46 c10 -5 17 -18 16 -27 -2 -10 4 -23 13 -30 14 -11 12 -12 -11 -13
-16 0 -28 5 -28 10 0 6 -9 10 -20 10 -13 0 -18 5 -14 15 4 11 2 13 -9 9 -8 -3
-18 0 -23 7 -5 9 3 11 35 6 38 -5 40 -4 24 9 -21 16 -10 19 17 4z m-530 -10
c-10 -7 -1 -8 30 -4 l45 7 -19 -22 c-11 -11 -25 -21 -33 -21 -7 0 -13 -4 -13
-10 0 -5 -15 -10 -32 -10 -25 0 -29 3 -18 10 15 9 16 13 19 45 0 8 9 15 19 15
15 0 15 -2 2 -10z"/>
<path d="M1605 770 c3 -5 8 -10 11 -10 2 0 4 5 4 10 0 6 -5 10 -11 10 -5 0 -7
-4 -4 -10z"/>
<path d="M1510 751 c0 -7 -5 -9 -12 -5 -7 5 -8 3 -3 -5 5 -9 10 -10 18 -2 6 6
8 14 4 18 -4 3 -7 1 -7 -6z"/>
<path d="M1780 752 c0 -6 9 -12 20 -15 11 -3 20 -3 20 -1 0 2 -9 8 -20 14 -11
6 -20 7 -20 2z"/>
<path d="M4175 770 c-3 -6 1 -7 9 -4 18 7 21 14 7 14 -6 0 -13 -4 -16 -10z"/>
<path d="M4005 750 c-3 -5 -1 -10 4 -10 6 0 11 5 11 10 0 6 -2 10 -4 10 -3 0
-8 -4 -11 -10z"/>
<path d="M4300 738 c0 -6 3 -8 7 -4 4 3 28 -15 54 -40 34 -33 46 -41 43 -27
-3 12 -25 35 -49 52 -48 34 -55 37 -55 19z"/>
<path d="M3148 313 c7 -3 16 -2 19 1 4 3 -2 6 -13 5 -11 0 -14 -3 -6 -6z"/>
<path d="M2650 320 c-21 -7 -21 -8 -5 -9 11 0 27 4 35 9 18 11 5 11 -30 0z"/>
<path d="M1765 940 c-16 -7 -17 -9 -3 -9 9 -1 20 4 23 9 7 11 7 11 -20 0z"/>
<path d="M3820 918 c0 -9 7 -19 16 -22 15 -6 15 -4 3 11 -7 10 -15 20 -16 22
-2 2 -3 -3 -3 -11z"/>
<path d="M1966 905 c-11 -8 -15 -15 -9 -15 6 0 16 7 23 15 16 19 11 19 -14 0z"/>
<path d="M4048 903 c7 -3 16 -2 19 1 4 3 -2 6 -13 5 -11 0 -14 -3 -6 -6z"/>
</g>
</svg>
